<svg width="483" height="199" viewBox="0 0 483 199" fill="none" xmlns="http://www.w3.org/2000/svg">
<g clip-path="url(#clip0_1844_39062)">
<path fill-rule="evenodd" clip-rule="evenodd" d="M163.852 64H167.852V49.46H173.412V45.75H158.312V49.46H163.852V64ZM174.962 64H179.062L180.732 59.9H188.462L190.152 64H194.362L186.522 45.59H182.852L174.982 64H174.962ZM182.172 56.35L184.592 50.42L187.022 56.35H182.172ZM222.262 45.72H218.262V60.4H211.732V45.75H207.732V60.4H201.222V45.75H197.222V64H222.322V45.75L222.262 45.72ZM226.672 64H230.672V58.44L232.852 56.25L238.482 64H243.312L235.522 53.5L242.972 45.75H238.112L230.692 53.75V45.75H226.692V64H226.672ZM245.742 64H259.662V60.45H249.742V56.61H258.362V53H249.742V49.3H259.532V45.75H245.742V64ZM263.242 64H267.242V56.69H274.662V64H278.662V45.75H274.662V53H267.242V45.75H263.242V64ZM287.352 64H291.352V49.46H296.922V45.75H281.792V49.46H287.352V64ZM308.592 64.32C309.994 64.4046 311.398 64.1685 312.696 63.6296C313.993 63.0907 315.151 62.2633 316.082 61.21L313.522 58.46C312.913 59.1297 312.172 59.6663 311.346 60.0363C310.52 60.4062 309.627 60.6016 308.722 60.61C305.582 60.61 303.412 57.99 303.412 54.86C303.37 54.1308 303.475 53.4006 303.722 52.713C303.968 52.0255 304.351 51.3946 304.846 50.8579C305.342 50.3213 305.94 49.89 306.606 49.5897C307.272 49.2894 307.991 49.1263 308.722 49.11C309.601 49.0986 310.473 49.2705 311.282 49.6149C312.091 49.9592 312.82 50.4684 313.422 51.11L315.822 48.34C314.76 47.1667 313.423 46.276 311.931 45.748C310.44 45.22 308.84 45.0714 307.277 45.3154C305.713 45.5595 304.235 46.1886 302.975 47.1462C301.715 48.1037 300.714 49.3595 300.06 50.8006C299.406 52.2416 299.121 53.8227 299.231 55.4012C299.34 56.9798 299.841 58.5063 300.687 59.8434C301.533 61.1804 302.699 62.286 304.079 63.0605C305.459 63.835 307.009 64.254 308.592 64.28V64.32ZM319.302 64H323.302V58.44L325.422 56.25L331.102 64H335.942L328.152 53.5L335.602 45.75H330.742L323.322 53.75V45.75H319.322V64H319.302ZM354.122 45.72H350.382L342.382 57.72V45.72H338.382V64H342.162L350.162 52V64H354.162V45.75L354.122 45.72ZM374.262 45.72H370.522L362.522 57.72V45.72H358.522V64H362.302L370.302 52V64H374.302V45.75L374.262 45.72ZM366.452 44.33C367.562 44.3762 368.645 43.9816 369.466 43.2324C370.286 42.4831 370.777 41.4398 370.832 40.33L368.512 40C368.435 40.4925 368.184 40.9413 367.806 41.2654C367.427 41.5896 366.945 41.7677 366.447 41.7677C365.948 41.7677 365.466 41.5896 365.087 41.2654C364.709 40.9413 364.458 40.4925 364.382 40L362.062 40.42C362.116 41.5316 362.608 42.5764 363.431 43.326C364.254 44.0756 365.34 44.4689 366.452 44.42V44.33ZM163.642 79H172.392V75.32H159.622V93.6H163.622V79H163.642ZM184.122 94C185.982 93.9548 187.788 93.3617 189.313 92.2951C190.838 91.2285 192.015 89.7357 192.696 88.0037C193.377 86.2716 193.531 84.3771 193.141 82.5575C192.75 80.7378 191.832 79.0738 190.5 77.7737C189.168 76.4736 187.483 75.5952 185.654 75.2485C183.826 74.9017 181.935 75.102 180.22 75.8242C178.505 76.5465 177.041 77.7587 176.011 79.309C174.982 80.8593 174.432 82.6789 174.432 84.54C174.431 85.8019 174.683 87.0511 175.173 88.2141C175.663 89.3771 176.38 90.4304 177.283 91.3119C178.186 92.1934 179.256 92.8853 180.431 93.347C181.605 93.8087 182.86 94.0307 184.122 94ZM184.122 90.29C183.377 90.2878 182.64 90.1359 181.955 89.8435C181.27 89.5511 180.651 89.1241 180.134 88.5877C179.618 88.0514 179.214 87.4168 178.947 86.7215C178.68 86.0261 178.556 85.2843 178.582 84.54C178.546 83.7975 178.662 83.0555 178.922 82.3591C179.183 81.6628 179.581 81.0264 180.095 80.4888C180.608 79.9511 181.225 79.5233 181.909 79.2313C182.592 78.9393 183.328 78.7892 184.072 78.79C184.816 78.7922 185.553 78.9441 186.238 79.2365C186.923 79.5289 187.542 79.9559 188.059 80.4923C188.575 81.0286 188.979 81.6632 189.246 82.3585C189.513 83.0539 189.637 83.7957 189.612 84.54C189.647 85.2825 189.531 86.0245 189.271 86.7209C189.011 87.4172 188.612 88.0536 188.098 88.5912C187.585 89.1289 186.968 89.5567 186.284 89.8487C185.601 90.1407 184.865 90.2908 184.122 90.29ZM205.962 94C207.366 94.0832 208.77 93.8464 210.069 93.3077C211.368 92.769 212.528 91.9423 213.462 90.89L210.902 88.14C210.29 88.809 209.547 89.3451 208.72 89.715C207.893 90.0848 206.998 90.2806 206.092 90.29C202.952 90.29 200.792 87.67 200.792 84.54C200.792 81.41 203.012 78.79 206.092 78.79C206.971 78.7786 207.843 78.9505 208.652 79.2949C209.461 79.6392 210.19 80.1484 210.792 80.79L213.192 78.02C212.299 77.0396 211.205 76.2639 209.985 75.746C208.765 75.2282 207.447 74.9805 206.122 75.02C204.879 75.0095 203.647 75.2438 202.495 75.7095C201.344 76.1752 200.295 76.8632 199.409 77.7342C197.62 79.4933 196.603 81.8911 196.582 84.4C196.56 86.9089 197.537 89.3236 199.296 91.1127C201.055 92.9018 203.453 93.9188 205.962 93.94V94ZM224.452 85L219.452 75.34H214.952L222.312 89C222.092 89.426 221.763 89.7863 221.359 90.0444C220.955 90.3025 220.49 90.4494 220.012 90.47C219.246 90.4759 218.495 90.2681 217.842 89.87L216.272 92.82C217.482 93.5352 218.866 93.9052 220.272 93.89C222.832 93.89 224.662 92.64 226.272 89.45L233.272 75.32H228.852L224.452 85ZM233.962 97.44H237.592L237.852 93.6H249.292V97.42H252.662L253.182 89.97H250.992V75.32H237.692V77.46C237.692 83.7 237.042 86.81 235.692 89.97H233.972V97.42L233.962 97.44ZM246.962 78.97V90H239.902C241.076 87.0893 241.638 83.9676 241.552 80.83V79L246.962 78.97ZM254.432 93.62H258.532L260.202 89.52H267.932L269.602 93.62H273.852L266.012 75.21H262.302L254.442 93.6L254.432 93.62ZM261.652 86L264.082 80L266.512 86H261.652ZM276.652 93.65H280.652V88.12H283.712C287.812 88.12 291.102 85.92 291.102 81.69C291.102 77.9 288.462 75.32 284.102 75.32H276.632V93.6L276.652 93.65ZM280.652 84.59V79H283.762C285.762 79 287.032 80 287.032 81.77C287.032 83.39 285.852 84.59 283.842 84.59H280.652ZM302.652 93.97C304.056 94.0532 305.46 93.8164 306.759 93.2777C308.058 92.739 309.218 91.9123 310.152 90.86L307.582 88.11C306.973 88.7797 306.232 89.3163 305.406 89.6863C304.58 90.0562 303.687 90.2516 302.782 90.26C299.642 90.26 297.482 87.64 297.482 84.51C297.482 81.38 299.702 78.76 302.782 78.76C303.661 78.7486 304.533 78.9205 305.342 79.2649C306.151 79.6092 306.88 80.1184 307.482 80.76L309.852 78C308.967 77.0287 307.884 76.2583 306.677 75.7408C305.469 75.2233 304.165 74.9707 302.852 75C301.609 74.9895 300.377 75.2238 299.225 75.6895C298.074 76.1552 297.025 76.8432 296.139 77.7142C294.35 79.4733 293.333 81.871 293.312 84.38C293.29 86.8889 294.267 89.3036 296.026 91.0927C297.785 92.8818 300.183 93.8988 302.692 93.92L302.652 93.97ZM317.652 93.65H321.652V79H327.212V75.32H312.062V79H317.632V93.6L317.652 93.65ZM330.322 93.65H339.012C343.142 93.65 345.862 91.98 345.862 88.65C345.862 86.14 344.552 84.91 342.442 84.1C343.189 83.7403 343.815 83.1702 344.243 82.4597C344.672 81.7491 344.883 80.929 344.852 80.1C344.874 79.5145 344.773 78.9309 344.556 78.3867C344.339 77.8425 344.01 77.3497 343.592 76.94C342.941 76.3682 342.184 75.9307 341.363 75.6527C340.543 75.3747 339.676 75.2616 338.812 75.32H330.332V93.6L330.322 93.65ZM334.232 82.76V78.84H338.232C339.932 78.84 340.872 79.52 340.872 80.72C340.872 82.13 339.752 82.72 337.972 82.72L334.232 82.76ZM334.232 90.13V86.13H338.852C340.922 86.13 341.852 86.89 341.852 88.13C341.852 89.54 340.782 90.13 339.002 90.13H334.232ZM349.152 93.6H363.082V90H353.152V86.18H361.772V82.6H353.152V78.9H362.952V75.32H349.152V93.6ZM366.662 93.6H370.662V86.26H378.082V93.6H382.082V75.32H378.082V82.55H370.662V75.32H366.662V93.6ZM386.512 93.6H390.512V86.26H397.932V93.6H401.932V75.32H397.932V82.55H390.512V75.32H386.512V93.6ZM406.362 93.6H414.022C418.302 93.6 420.962 91.22 420.962 87.46C420.962 83.88 418.512 81.53 414.282 81.53H410.382V75.32H406.382V93.6H406.362ZM413.942 85C415.942 85 416.942 85.89 416.942 87.43C416.942 89.13 415.942 89.99 413.942 89.99H410.362V85H413.942ZM423.002 93.62H427.002V75.32H423.002V93.6V93.62ZM447.162 75.34H443.432L435.382 87.34V75.34H431.382V93.6H435.172L443.172 81.6V93.6H447.172V75.32L447.162 75.34ZM439.352 73.95C440.463 73.9989 441.549 73.6056 442.372 72.856C443.195 72.1064 443.687 71.0616 443.742 69.95L441.422 69.53C441.345 70.0225 441.094 70.4713 440.716 70.7954C440.337 71.1196 439.855 71.2977 439.357 71.2977C438.858 71.2977 438.376 71.1196 437.997 70.7954C437.619 70.4713 437.368 70.0225 437.292 69.53L434.962 69.95C435.021 71.0597 435.515 72.1015 436.337 72.85C437.158 73.5985 438.241 73.9936 439.352 73.95ZM174.922 123.49C180.172 123.49 183.862 119.28 183.862 114.03C183.862 108.78 180.202 104.57 174.982 104.57C172.843 104.56 170.773 105.324 169.154 106.721C167.535 108.118 166.476 110.053 166.172 112.17H163.642V104.89H159.642V123.17H163.642V115.78H166.152C166.408 117.919 167.444 119.889 169.062 121.312C170.681 122.735 172.767 123.51 174.922 123.49ZM174.982 119.83C172.132 119.83 170.202 117.27 170.202 114.03C170.202 110.79 172.102 108.26 174.922 108.26C177.742 108.26 179.702 110.82 179.702 114.03C179.702 117.24 177.802 119.83 174.982 119.83ZM187.442 123.17H191.442V117.69H194.502C198.602 117.69 201.892 115.49 201.892 111.26C201.892 107.47 199.252 104.89 194.892 104.89H187.422V123.17H187.442ZM191.442 114.11V108.52H194.552C196.552 108.52 197.812 109.52 197.812 111.29C197.812 112.91 196.642 114.11 194.632 114.11H191.442ZM220.622 104.89H216.882L208.882 116.89V104.89H204.882V123.17H208.662L216.662 111.17V123.17H220.662V104.89H220.622ZM223.072 126.99H226.702L226.962 123.17H238.412V127H241.852L242.372 119.55H240.172V104.89H226.852V107C226.852 113.24 226.192 116.35 224.852 119.51H223.122V127L223.072 126.99ZM236.072 108.52V119.52H229.052C230.218 116.607 230.776 113.487 230.692 110.35V108.5L236.072 108.52ZM260.852 104.89H257.152L249.152 116.89V104.89H245.152V123.17H248.942L256.942 111.17V123.17H260.942V104.89H260.852ZM275.852 123.17H279.852V104.89H275.852V112.78C274.671 113.573 273.274 113.982 271.852 113.95C269.782 113.95 268.852 112.67 268.852 110.4V104.89H264.852V111.57C264.852 115.81 267.362 117.71 270.992 117.71C272.684 117.63 274.336 117.165 275.822 116.35V123.17H275.852ZM284.262 123.17H298.192V119.59H288.262V115.75H296.882V112.17H288.262V108.47H298.062V104.89H284.262V123.17ZM310.332 123.49C311.736 123.575 313.141 123.34 314.441 122.801C315.74 122.262 316.9 121.434 317.832 120.38L315.272 117.63C314.66 118.299 313.917 118.835 313.09 119.205C312.263 119.575 311.368 119.771 310.462 119.78C307.332 119.78 305.162 117.16 305.162 114.03C305.162 110.9 307.382 108.28 310.462 108.28C311.342 108.268 312.216 108.44 313.027 108.785C313.838 109.129 314.568 109.638 315.172 110.28L317.572 107.51C316.51 106.337 315.174 105.447 313.682 104.919C312.191 104.391 310.592 104.242 309.029 104.485C307.466 104.729 305.988 105.357 304.728 106.314C303.468 107.271 302.466 108.526 301.812 109.966C301.158 111.407 300.872 112.987 300.981 114.565C301.089 116.143 301.588 117.67 302.433 119.007C303.278 120.345 304.442 121.451 305.821 122.226C307.2 123.002 308.75 123.422 310.332 123.45V123.49ZM321.042 123.17H325.042V117.58L327.152 115.39L332.822 123.17H337.652L329.872 112.65L337.312 104.89H332.462L325.042 112.89V104.89H321.042V123.17ZM355.852 104.89H352.122L344.072 116.89V104.89H340.072V123.17H343.862L351.862 111.17V123.17H355.862V104.89H355.852ZM375.992 104.89H372.262L364.212 116.89V104.89H360.212V123.17H364.002L372.002 111.17V123.17H376.002V104.89H375.992ZM368.182 103.5C369.293 103.549 370.379 103.156 371.202 102.406C372.025 101.656 372.517 100.612 372.572 99.5L370.252 99.08C370.175 99.5725 369.924 100.021 369.546 100.345C369.167 100.67 368.685 100.848 368.187 100.848C367.688 100.848 367.206 100.67 366.827 100.345C366.449 100.021 366.198 99.5725 366.122 99.08L363.802 99.5C363.856 100.61 364.347 101.653 365.167 102.402C365.988 103.152 367.071 103.546 368.182 103.5ZM167.352 144.12L162.352 134.46H157.852L165.172 148.15C164.949 148.573 164.619 148.93 164.216 149.186C163.812 149.442 163.349 149.588 162.872 149.61C162.106 149.616 161.355 149.408 160.702 149.01L159.132 152.01C160.342 152.725 161.726 153.095 163.132 153.08C165.692 153.08 167.522 151.83 169.132 148.64L176.132 134.51H171.762L167.352 144.17V144.12ZM178.792 152.74H182.792V145.4H190.212V152.74H194.212V134.46H190.212V141.69H182.852V134.46H178.852V152.74H178.792ZM214.392 134.46H210.662L202.612 146.46V134.46H198.612V152.74H202.402L210.402 140.74V152.74H214.402V134.46H214.392ZM218.782 152.74H227.482C231.612 152.74 234.322 151.07 234.322 147.74C234.322 145.23 233.022 144 230.902 143.19C231.64 142.836 232.261 142.275 232.688 141.576C233.116 140.877 233.332 140.069 233.312 139.25C233.334 138.665 233.233 138.081 233.016 137.537C232.799 136.992 232.47 136.5 232.052 136.09C231.401 135.518 230.644 135.081 229.823 134.803C229.003 134.525 228.136 134.412 227.272 134.47H218.782V152.75V152.74ZM222.702 141.85V138H226.702C228.402 138 229.342 138.68 229.342 139.88C229.342 141.3 228.222 141.88 226.442 141.88L222.702 141.85ZM222.702 149.22V145.22H227.352C229.412 145.22 230.352 145.98 230.352 147.22C230.352 148.63 229.282 149.22 227.502 149.22H222.702ZM237.642 152.74H251.562V149.16H241.642V145.32H250.262V141.74H241.642V138H251.432V134.42H237.642V152.7V152.74ZM255.142 152.74H259.142V147.26H262.192C266.292 147.26 269.582 145.06 269.582 140.83C269.582 137.04 266.952 134.46 262.582 134.46H255.112V152.74H255.142ZM259.142 143.68V138.09H262.242C264.242 138.09 265.512 139.09 265.512 140.86C265.512 142.48 264.332 143.68 262.322 143.68H259.142ZM281.142 153.06C282.546 153.145 283.951 152.91 285.251 152.371C286.55 151.832 287.71 151.004 288.642 149.95L286.082 147.2C285.47 147.869 284.727 148.405 283.9 148.775C283.073 149.145 282.178 149.341 281.272 149.35C278.142 149.35 275.972 146.73 275.972 143.6C275.972 140.47 278.192 137.85 281.272 137.85C282.151 137.839 283.023 138.011 283.832 138.355C284.641 138.699 285.37 139.208 285.972 139.85L288.382 137.08C287.32 135.907 285.984 135.017 284.492 134.489C283.001 133.961 281.402 133.812 279.839 134.055C278.276 134.299 276.798 134.927 275.538 135.884C274.278 136.841 273.276 138.096 272.622 139.536C271.968 140.977 271.682 142.557 271.791 144.135C271.899 145.713 272.398 147.24 273.243 148.577C274.088 149.915 275.252 151.021 276.631 151.796C278.01 152.572 279.56 152.992 281.142 153.02V153.06ZM307.602 134.46H303.852L295.802 146.46V134.46H291.802V152.74H295.592L303.592 140.74V152.74H307.592V134.46H307.602ZM316.252 152.74H320.252V138.17H325.852V134.46H310.702V138.17H316.272V152.74H316.252ZM328.922 152.74H342.852V149.16H332.922V145.32H341.542V141.74H332.922V138H342.722V134.42H328.942V152.7L328.922 152.74ZM350.672 152.74H354.672V138.17H360.232V134.46H345.132V138.17H350.692L350.672 152.74Z" fill="white"/>
<path fill-rule="evenodd" clip-rule="evenodd" d="M46.5222 61.5108V68.2108H36.9922V55.2108C36.9949 54.8757 37.1298 54.5552 37.3677 54.3192C37.6056 54.0832 37.9271 53.9508 38.2622 53.9508H79.1022C79.4373 53.9508 79.7588 54.0832 79.9967 54.3192C80.2346 54.5552 80.3696 54.8757 80.3722 55.2108V159.381C68.5583 158.348 57.5577 152.935 49.5311 144.205C41.5044 135.475 37.032 124.06 36.9922 112.201V74.5208H46.5222V78.0708C46.5328 81.6533 47.9606 85.086 50.4938 87.6192C53.027 90.1524 56.4597 91.5802 60.0422 91.5908C60.2622 91.583 60.4815 91.6208 60.6863 91.7017C60.891 91.7825 61.0769 91.9048 61.2322 92.0608C61.5364 92.3666 61.7087 92.7794 61.7122 93.2108V96.0008C61.7082 96.4291 61.5358 96.8386 61.2322 97.1408C61.0839 97.2929 60.9066 97.4137 60.7108 97.4962C60.515 97.5786 60.3047 97.621 60.0922 97.6208H42.6822C43.8422 101.512 46.3162 104.88 49.6822 107.151C53.4028 109.618 57.8796 110.681 62.3122 110.151C65.4405 109.739 68.4095 108.526 70.9322 106.631V61.5108H46.5222ZM70.9022 153.671V116.401C68.0392 117.368 65.0439 117.888 62.0222 117.941C56.4171 118.136 50.9247 116.336 46.5222 112.861V118.331C46.5495 125.993 48.8923 133.467 53.243 139.774C57.5938 146.08 63.7494 150.925 70.9022 153.671V153.671ZM89.5822 53.9408H130.432C130.767 53.9408 131.089 54.0732 131.327 54.3092C131.565 54.5452 131.7 54.8657 131.702 55.2008V68.2008H122.172V61.5008H97.7922V85.4508C102.528 84.011 107.559 83.8386 112.382 84.9508C115.966 85.68 119.323 87.2573 122.172 89.5508V74.5508H131.702V112.201C131.662 124.06 127.19 135.475 119.163 144.205C111.137 152.935 100.136 158.348 88.3222 159.381V55.2008C88.3248 54.8674 88.4584 54.5484 88.6942 54.3127C88.9299 54.077 89.2489 53.9434 89.5822 53.9408V53.9408ZM97.7922 95.9408V153.721C103.211 151.632 108.081 148.334 112.032 144.078C115.984 139.821 118.911 134.72 120.592 129.161C123.512 119.421 119.122 110.881 108.652 110.881C108.224 110.876 107.815 110.703 107.512 110.401C107.21 110.098 107.037 109.689 107.032 109.261V106.461C107.036 106.032 107.209 105.623 107.512 105.321C107.661 105.169 107.838 105.048 108.034 104.965C108.229 104.883 108.44 104.841 108.652 104.841H126.052C124.914 101.061 122.536 97.7742 119.302 95.5108C115.708 93.0507 111.37 91.9193 107.032 92.3108C103.685 92.6805 100.496 93.9333 97.7922 95.9408V95.9408ZM84.3422 51.1808C78.7022 47.5108 77.2722 46.6208 70.3422 46.6208H38.2422C37.9106 46.6156 37.5942 46.4808 37.3606 46.2454C37.127 46.0099 36.9948 45.6924 36.9922 45.3608V40.3608C36.9909 40.1958 37.0223 40.0322 37.0845 39.8794C37.1467 39.7265 37.2386 39.5876 37.3548 39.4704C37.471 39.3533 37.6092 39.2603 37.7616 39.1969C37.9139 39.1334 38.0772 39.1008 38.2422 39.1008H71.6722C77.8322 39.1008 79.0522 39.7408 84.4322 42.6408C89.8522 39.6908 90.8522 39.0508 97.0222 39.0508H130.452C130.784 39.056 131.1 39.1907 131.334 39.4262C131.567 39.6616 131.7 39.9791 131.702 40.3108V45.3108C131.7 45.6424 131.567 45.9599 131.334 46.1954C131.1 46.4308 130.784 46.5656 130.452 46.5708H98.3022C91.4222 46.6208 89.9822 47.5108 84.3422 51.1808Z" fill="white"/>
</g>
<defs>
<clipPath id="clip0_1844_39062">
<rect width="481.89" height="198.43" fill="white" transform="translate(0.851562)"/>
</clipPath>
</defs>
</svg>
